<svg id="Bag_Carrinho" data-name="Bag Carrinho" xmlns="http://www.w3.org/2000/svg" width="39.114" height="47.841" viewBox="0 0 39.114 47.841">
  <path id="bag-svgrepo-com" d="M82.94,44.487,78.788,12.926a3.541,3.541,0,0,0-1.2-2.2L72.679,5.82a1.045,1.045,0,0,0-.739-.306H70.406a7.2,7.2,0,0,0-13.993,0H54.876a1.045,1.045,0,0,0-.739.306l-4.944,4.944a3.536,3.536,0,0,0-1.159,2.162L43.88,44.487a2.92,2.92,0,0,0,2.942,3.354H80a2.92,2.92,0,0,0,2.942-3.354ZM73.749,9.844H70.606V7.6h.9ZM63.409,2.09A5.113,5.113,0,0,1,68.517,7.2V9.844H58.3V7.2A5.113,5.113,0,0,1,63.409,2.09ZM55.308,7.6h.9V9.845H53.067Zm-5.2,5.6a1.537,1.537,0,0,1,1.442-1.265h4.666v3.814a1.045,1.045,0,1,0,2.09,0V11.934H68.517v3.814a1.045,1.045,0,1,0,2.09,0V11.934h4.668a1.471,1.471,0,0,1,.979.414l.008.008.008.007a1.442,1.442,0,0,1,.447.835l3.471,26.38H46.633Zm30.573,32.27a.882.882,0,0,1-.678.282H46.822a.834.834,0,0,1-.87-.992l.407-3.091h34.1l.407,3.091A.882.882,0,0,1,80.677,45.469Z" transform="translate(-43.853)" fill="#fff"/>
</svg>
