<svg id="Location" xmlns="http://www.w3.org/2000/svg" width="60.782" height="86.984" viewBox="0 0 60.782 86.984">
  <path id="Caminho_31" d="M100.066,68.88a28.929,28.929,0,0,0-28.9,28.86c0,9.74,5.643,16.72,8.405,22.24q.052.1.111.2l14.645,24.4a2.99,2.99,0,0,0,
  .374-.5l17.937-29.875c.04-.065.076-.131.111-.2,2.8-5.6,8.145-12.706,8.16-22.24a28.728,28.728,0,0,0-7.926-19.8A28.661,28.661,0,0,0,100.066,68.88Z"
        transform="translate(-60.14 -58.602)" fill="#f58e80"/>
  <path id="Caminho_32" d="M100.861,68.351a30.447,30.447,0,0,0-30.4,30.385c0,10.255,5.937,17.6,8.843,23.415q.054.106.117.209l18.865,31.454a3.144,3.144,0,0,0,5.386,0l18.871-31.454q.062-.1.117
  -.209c2.946-5.892,8.569-13.378,8.585-23.415A30.426,30.426,0,0,0,100.86,68.351Zm0,6.294a24.036,24.036,0,0,1,24.091,24.091c-.013,7.6-4.575,13.893-7.916,20.56l-16.058,26.787L84.913,119.345l-.025
  -.049c-3.381-6.746-8.143-12.815-8.143-20.56A24.057,24.057,0,0,1,100.86,74.646Zm0,8.259a15.828,15.828,0,1,0,15.825,15.831A15.9,15.9,0,0,0,100.861,82.905Zm0,6.288A9.552,9.552,0,1,1,91.3,98.736,9.486,
  9.486,0,0,1,100.861,89.194Z" transform="translate(-70.457 -68.351)" fill="#fb745d"/>
</svg>
