<svg id="Login" xmlns="http://www.w3.org/2000/svg" xmlns:xlink="http://www.w3.org/1999/xlink" width="59" height="59" viewBox="0 0 59 59">
  <defs>
    <clipPath id="clip-path">
      <circle id="Elipse_1" data-name="Elipse 1" cx="28.5" cy="28.5" r="28.5" fill="#fff" style="mix-blend-mode: darken;isolation: isolate"/>
    </clipPath>
  </defs>
  <g id="Cadastro" transform="translate(1.075 1.078)">
    <g id="Grupo_de_máscara_1" data-name="Grupo de máscara 1" clip-path="url(#clip-path)">
      <g id="Person_Login" data-name="Person Login" transform="translate(0.461 7.922)">
        <path id="Icon_open-person" data-name="Icon open-person" d="M28.039,0C20.328,0,14.019,7.151,14.019,15.962s6.309,15.962,14.019,15.962,14.019-7.151,14.019-15.962S35.749,0,28.039,0ZM13.389,31.923C5.958,32.243,0,37.8,0,44.693v6.385H56.078V44.693c0-6.9-5.888-12.45-13.389-12.769a20.487,20.487,0,0,1-14.65,6.385A20.487,20.487,0,0,1,13.389,31.923Z" fill="#fff"/>
      </g>
    </g>
  </g>
  <circle id="Elipse_2" data-name="Elipse 2" cx="29.5" cy="29.5" r="29.5" fill="none"/>
</svg>
