<svg id="Phone" xmlns="http://www.w3.org/2000/svg" width="60.782" height="60.671" viewBox="0 0 60.782 60.671">
  <path id="Caminho_33" d="M46.452,41.291a6.065,6.065,0,0,0-8.592,0l-2.931,2.931A52.846,52.846,0,0,1,
  25.812,36.9a53.815,53.815,0,0,1-7.318-9.117l2.931-2.931a6.065,6.065,0,0,0,0-8.592l-5.721-5.7a5.923,5.923,
  0,0,0-4.266-1.779h0a6.065,6.065,0,0,0-4.306,1.779L4.383,13.291A12.878,12.878,0,0,0,1.067,23.9c.647,7.581,
  5.62,16.7,13.282,24.381S31.23,60.921,38.811,61.648a15.91,15.91,0,0,0,1.7,0,12.271,12.271,0,0,0,8.915-3.315l2.729-2.749a6.065,
  6.065,0,0,0,1.779-4.306,5.923,5.923,0,0,0-1.779-4.266ZM49.3,52.733l-2.749,2.729a9.239,9.239,0,0,1-7.4,2.022c-6.57-.566-14.94-5.216-21.854-12.13S5.737,
  30.131,5.11,23.561a9.158,9.158,0,0,1,2.022-7.4l2.85-2.749a2.022,2.022,0,0,1,1.435-.586h0a2.022,2.022,0,0,1,1.435.586l5.721,5.782a2.022,2.022,0,0,1,0,2.85l-4.043,4.043a2.022,
  2.022,0,0,0-.323,2.446,55.574,55.574,0,0,0,8.754,11.281,55.574,55.574,0,0,0,11.281,8.754,2.022,2.022,0,0,0,2.446-.323L40.731,44.2a2.022,2.022,0,0,1,2.85,0L49.3,49.923h0a1.976,
  1.976,0,0,1,0,2.81ZM52.82,9.875A30.162,30.162,0,0,0,31.391,1a2.022,2.022,0,0,0,0,4.043,26.281,26.281,0,0,1,26.281,26.5,2.022,2.022,0,0,0,2.022,2.022h0a2.022,2.022,0,0,0,2.022-2.022,30.142,30.142,
  0,0,0-8.9-21.672Z" transform="translate(-0.934 -1)" fill="#fb745d"/>
  <path id="Caminho_34" d="M26.253,14.982A12.13,12.13,0,0,1,29.831,23.7a2.022,2.022,0,0,0,2.022,2.022h0A2.022,2.022,0,0,0,33.875,23.7,
  16.173,16.173,0,0,0,17.7,7.32a2.022,2.022,0,0,0,0,4.043,12.13,12.13,0,0,1,8.551,3.619Z" transform="translate(14.13 5.457)" fill="#fb745d"/>
</svg>
